<?xml version="1.0" standalone="no"?>
<!DOCTYPE svg PUBLIC "-//W3C//DTD SVG 20010904//EN"
 "http://www.w3.org/TR/2001/REC-SVG-20010904/DTD/svg10.dtd">
<svg version="1.0" xmlns="http://www.w3.org/2000/svg"
 width="1000.000000pt" height="1000.000000pt" viewBox="0 0 1000.000000 1000.000000"
 preserveAspectRatio="xMidYMid meet">
<metadata>
Created by potrace 1.14, written by Peter Selinger 2001-2017
</metadata>
<g transform="translate(0.000000,1000.000000) scale(0.100000,-0.100000)"
fill="#000000" stroke="none">
<path d="M4836 9992 c-4 -3 -34 -6 -69 -7 -108 -3 -368 -27 -437 -40 -9 -2
-41 -6 -70 -10 -29 -4 -62 -9 -74 -11 -24 -5 -67 -12 -111 -19 -106 -16 -429
-98 -575 -145 -52 -17 -102 -33 -110 -35 -33 -9 -242 -88 -320 -122 -19 -8
-44 -19 -55 -23 -115 -47 -405 -196 -574 -295 -162 -95 -416 -271 -541 -374
-115 -95 -238 -199 -266 -226 -165 -158 -222 -215 -308 -308 -54 -59 -106
-117 -114 -129 -9 -13 -21 -27 -27 -33 -56 -49 -435 -572 -435 -600 0 -3 -17
-32 -37 -63 -55 -84 -84 -138 -182 -337 -136 -275 -177 -373 -269 -651 -55
-164 -103 -338 -137 -496 -13 -60 -16 -75 -20 -98 -3 -14 -7 -36 -10 -50 -2
-14 -7 -38 -10 -55 -3 -16 -7 -41 -10 -54 -2 -13 -7 -49 -11 -80 -3 -31 -8
-59 -10 -62 -1 -3 -6 -39 -9 -80 -4 -41 -8 -81 -10 -89 -27 -109 -26 -817 2
-1025 5 -44 8 -62 18 -150 3 -33 8 -71 11 -85 6 -39 45 -254 48 -265 2 -5 6
-28 10 -50 4 -22 12 -53 17 -70 4 -16 16 -61 25 -100 9 -38 23 -89 30 -112 7
-23 15 -52 18 -65 13 -65 137 -415 186 -523 10 -22 33 -74 52 -115 53 -121
181 -368 248 -480 82 -138 171 -274 182 -278 4 -2 8 -9 8 -15 0 -7 9 -23 20
-37 11 -14 59 -77 106 -140 89 -118 159 -207 178 -225 6 -6 40 -44 75 -85 113
-131 418 -427 526 -511 17 -13 39 -32 50 -42 42 -39 285 -218 400 -294 412
-273 826 -467 1330 -623 142 -43 425 -111 529 -125 15 -3 35 -6 45 -9 9 -3 36
-8 61 -11 25 -3 56 -8 70 -10 98 -14 169 -23 245 -30 331 -32 856 -23 1125 19
14 2 48 8 75 12 28 4 52 8 55 9 3 0 30 5 60 9 30 4 64 10 75 12 11 2 36 7 55
9 19 3 53 10 75 16 22 6 51 13 65 16 14 2 61 13 105 24 44 12 87 22 95 24 8 2
43 12 78 23 34 11 62 18 62 16 0 -3 13 2 30 11 16 8 31 15 32 14 8 -4 262 83
323 110 11 5 81 35 155 66 74 32 149 64 165 73 17 8 38 19 47 23 51 25 218
113 248 131 38 22 203 121 235 141 11 6 48 31 83 55 35 23 67 42 72 42 4 0 10
4 12 8 2 5 50 43 108 85 618 444 1145 1069 1505 1782 81 160 208 450 207 472
0 4 3 13 8 18 5 8 58 154 65 185 1 3 4 12 8 20 9 22 57 182 61 205 3 11 16 63
30 115 14 52 39 163 55 245 28 142 34 174 46 263 3 20 7 51 10 67 3 17 7 59
10 95 3 36 8 74 10 86 25 115 24 846 0 934 -2 8 -7 47 -10 85 -8 94 -18 173
-31 245 -1 8 -6 35 -10 60 -4 25 -8 50 -10 55 -1 6 -7 37 -14 70 -6 33 -13 71
-16 85 -3 14 -11 50 -19 80 -8 30 -16 66 -19 80 -15 76 -121 414 -174 555 -95
252 -241 551 -384 789 -136 225 -335 504 -477 666 -12 14 -47 54 -78 90 -73
84 -352 362 -422 420 -29 25 -59 50 -65 55 -81 76 -324 259 -471 356 -183 120
-213 139 -224 139 -6 0 -11 5 -11 10 0 6 -4 10 -9 10 -5 0 -47 22 -94 49 -95
55 -353 183 -467 231 -88 37 -401 154 -445 165 -16 5 -34 9 -40 11 -5 1 -48
14 -95 29 -153 47 -445 112 -585 131 -22 3 -62 9 -90 14 -27 5 -75 12 -105 15
-30 3 -71 8 -90 10 -33 4 -111 10 -280 22 -120 8 -398 12 -404 5z"/>
</g>
</svg>
